<svg width="1062" height="1062" viewBox="0 0 1062 1062" fill="none" xmlns="http://www.w3.org/2000/svg">
<g filter="url(#filter0_f_1635_1383)">
<circle cx="531" cy="531" r="337" fill="#FF2121"/>
</g>
<g filter="url(#filter1_f_1635_1383)">
<circle cx="531" cy="531" r="267" fill="#FF3E3E"/>
</g>
<g filter="url(#filter2_f_1635_1383)">
<circle cx="531" cy="531" r="191" fill="#FF5F5F"/>
</g>
<path d="M550 392.727L547.273 593.455H515.636L512.909 392.727H550ZM531.455 674.182C524.727 674.182 518.955 671.773 514.136 666.955C509.318 662.136 506.909 656.364 506.909 649.636C506.909 642.909 509.318 637.136 514.136 632.318C518.955 627.5 524.727 625.091 531.455 625.091C538.182 625.091 543.955 627.5 548.773 632.318C553.591 637.136 556 642.909 556 649.636C556 654.091 554.864 658.182 552.591 661.909C550.409 665.636 547.455 668.636 543.727 670.909C540.091 673.091 536 674.182 531.455 674.182Z" fill="white"/>
<defs>
<filter id="filter0_f_1635_1383" x="0" y="0" width="1062" height="1062" filterUnits="userSpaceOnUse" color-interpolation-filters="sRGB">
<feFlood flood-opacity="0" result="BackgroundImageFix"/>
<feBlend mode="normal" in="SourceGraphic" in2="BackgroundImageFix" result="shape"/>
<feGaussianBlur stdDeviation="97" result="effect1_foregroundBlur_1635_1383"/>
</filter>
<filter id="filter1_f_1635_1383" x="214" y="214" width="634" height="634" filterUnits="userSpaceOnUse" color-interpolation-filters="sRGB">
<feFlood flood-opacity="0" result="BackgroundImageFix"/>
<feBlend mode="normal" in="SourceGraphic" in2="BackgroundImageFix" result="shape"/>
<feGaussianBlur stdDeviation="25" result="effect1_foregroundBlur_1635_1383"/>
</filter>
<filter id="filter2_f_1635_1383" x="300" y="300" width="462" height="462" filterUnits="userSpaceOnUse" color-interpolation-filters="sRGB">
<feFlood flood-opacity="0" result="BackgroundImageFix"/>
<feBlend mode="normal" in="SourceGraphic" in2="BackgroundImageFix" result="shape"/>
<feGaussianBlur stdDeviation="20" result="effect1_foregroundBlur_1635_1383"/>
</filter>
</defs>
</svg>
